<?xml version="1.0" ?><svg id="Layer_1" style="enable-background:new 0 0 595.3 595.3;" version="1.1" viewBox="0 0 595.3 595.3" xml:space="preserve" xmlns="http://www.w3.org/2000/svg" xmlns:xlink="http://www.w3.org/1999/xlink"><style type="text/css">
	.st0{fill:#58595B;}
	.st1{fill:#3A1811;}
	.st2{fill:#726658;}
	.st3{fill:#0DB4E7;}
	.st4{fill:#009DD4;}
	.st5{fill:#009444;}
	.st6{fill:#FBB040;}
	.st7{fill:#EFF8F5;}
	.st8{fill:#D81F26;}
	.st9{fill:#BCBEC0;}
	.st10{fill:#735032;}
	.st11{fill:#1C75BC;}
	.st12{fill:#FFD128;}
	.st13{fill:#D1AE23;}
	.st14{fill:#F9ED32;}
	.st15{fill:#939598;}
	.st16{fill:#9B8579;}
	.st17{fill:#F1B279;}
	.st18{fill:#603913;}
	.st19{fill:#754C29;}
	.st20{fill:#8B5E3C;}
	.st21{fill:#C49A6C;}
	.st22{fill:#F7941E;}
	.st23{fill:#00AEEF;}
	.st24{fill:#FAF5AE;}
	.st25{fill:#F5F7D5;}
	.st26{fill:#7ABE90;}
	.st27{fill:#BFA863;}
	.st28{fill:#2B3990;}
	.st29{fill:#EF3824;}
	.st30{fill:#BE1E2D;}
	.st31{fill:#A67A44;}
	.st32{fill:#00A388;}
	.st33{fill:#ABE0F1;}
	.st34{fill:#594A42;}
</style><g><g><path class="st12" d="M498.8,109.2c-52.7-48-134.6-47.5-186.7,1.2c-41.4,38.7-53.5,96.3-36.2,146.1c1.3,3.9,0.4,8.2-2.5,11    L116.8,424.1c-1.1,1.1-1.7,2.6-1.7,4.2l-1,67.9c-0.1,4,3.2,7.2,7.1,7.1l67.9-1c1.6,0,3.1-0.6,4.2-1.7l9.5-9.5    c2.1-2.1,2.3-5.5,0.5-8.1l-11.9-17.6c-1.8-2.6-1.6-6,0.5-8.1L208,441c2.1-2.1,5.5-2.3,8.1-0.5l17.6,11.9c2.6,1.8,6,1.6,8.1-0.5    l5.9-5.9c1.9-1.9,2.3-5,0.8-7.6l-11.2-19.9c-1.5-2.6-1.1-5.7,0.8-7.6l27-27c1.9-1.9,5-2.3,7.6-0.8l19.9,11.2    c2.6,1.5,5.7,1.1,7.6-0.8l5.9-5.9c2.1-2.1,2.3-5.5,0.5-8.1l-11.9-17.6c-1.8-2.6-1.6-6,0.5-8.1l16.2-16.2c2.1-2.1,5.5-2.3,8.1-0.5    l17.6,11.9c2.6,1.8,6,1.6,8.1-0.5l4.5-4.5c2.9-2.9,7.2-3.9,11-2.5c48.3,16.8,104.1,5.9,142.7-32.7    C558.9,253.3,557.3,162.5,498.8,109.2z M417.4,199.9c-13.2-13.2-13.2-34.6,0-47.8c13.2-13.2,34.6-13.2,47.8,0    c13.2,13.2,13.2,34.6,0,47.8C452,213.1,430.6,213.1,417.4,199.9z"/><path class="st1" d="M121.1,508.3c-3.2,0-6.2-1.2-8.5-3.5c-2.3-2.3-3.6-5.4-3.5-8.7l1-67.9c0-2.9,1.2-5.6,3.2-7.6L269.8,264    c1.5-1.5,2.1-3.8,1.3-5.9c-18.5-53.4-3.8-112.8,37.5-151.4c53.9-50.4,138.9-50.9,193.5-1.3l0,0c29.2,26.6,45.8,63,46.8,102.4    c0.9,39.4-13.9,76.5-41.8,104.4c-19.3,19.3-43.6,32.6-70.2,38.5c-25.9,5.7-52.8,4.1-77.7-4.5c-2.1-0.7-4.3-0.2-5.9,1.3l-4.5,4.5    c-3.8,3.8-9.8,4.2-14.5,1.1l-17.6-11.9c-0.6-0.4-1.4-0.5-1.8-0.1l-16.2,16.2c-0.4,0.4-0.3,1.1,0.1,1.8l11.9,17.6    c3.1,4.6,2.6,10.7-1.1,14.5l-5.9,5.9c-3.5,3.5-9.1,4.2-13.6,1.6l-19.9-11.2c-0.6-0.3-1.3-0.3-1.6,0l-27,27c-0.3,0.3-0.3,1,0,1.6    l11.2,19.9c2.5,4.5,1.9,10.1-1.6,13.6l-5.9,5.9c-3.8,3.8-9.8,4.2-14.5,1.1l-17.6-11.9c-0.6-0.4-1.4-0.5-1.8-0.1l-16.2,16.2    c-0.4,0.4-0.3,1.1,0.1,1.8l11.9,17.6c3.1,4.6,2.6,10.7-1.1,14.5l-9.5,9.5c-2,2-4.7,3.1-7.6,3.2l-67.9,1    C121.2,508.3,121.1,508.3,121.1,508.3z M406.1,78.6c-32.7,0-65.3,11.8-90.6,35.5c-38.4,35.9-52.1,91.2-34.9,140.8    c2,5.6,0.5,12-3.7,16.2L120.4,427.6c-0.2,0.2-0.3,0.4-0.3,0.7l-1,67.9c0,0.7,0.4,1.2,0.6,1.5s0.7,0.6,1.5,0.6l67.9-1    c0.3,0,0.5-0.1,0.7-0.3l9.5-9.5c0.4-0.4,0.3-1.1-0.1-1.8l-11.9-17.6c-3.1-4.6-2.6-10.7,1.1-14.5l16.2-16.2    c3.8-3.8,9.8-4.2,14.5-1.1l17.6,11.9c0.6,0.4,1.4,0.5,1.8,0.1l5.9-5.9c0.3-0.3,0.3-1,0-1.6L232.9,421c-2.5-4.5-1.9-10.1,1.6-13.6    l27-27c3.5-3.5,9.1-4.2,13.6-1.6l19.9,11.2c0.6,0.3,1.3,0.3,1.6,0l5.9-5.9c0.4-0.4,0.3-1.1-0.1-1.8l-11.9-17.6    c-3.1-4.6-2.6-10.7,1.1-14.5l16.2-16.2c3.8-3.8,9.8-4.2,14.5-1.1l17.6,11.9c0.6,0.4,1.4,0.5,1.8,0.1l4.5-4.5    c4.2-4.2,10.6-5.7,16.2-3.7c23.2,8.1,48.2,9.5,72.3,4.2c24.7-5.4,47.3-17.8,65.3-35.8c25.9-25.9,39.7-60.4,38.9-97.1    c-0.9-36.6-16.3-70.5-43.5-95.2C470.3,90,438.2,78.6,406.1,78.6z M441.3,214.8c-10.4,0-20.1-4-27.5-11.4l0,0l0,0    c-7.3-7.3-11.4-17.1-11.4-27.5c0-10.4,4-20.1,11.4-27.5c15.1-15.1,39.8-15.1,54.9,0c7.3,7.3,11.4,17.1,11.4,27.5    c0,10.4-4,20.1-11.4,27.5C461.4,210.8,451.7,214.8,441.3,214.8z M441.3,147.2c-7.4,0-14.8,2.8-20.4,8.4    c-5.4,5.4-8.4,12.7-8.4,20.4c0,7.7,3,14.9,8.4,20.4l0,0c5.4,5.4,12.7,8.4,20.4,8.4c7.7,0,14.9-3,20.4-8.4s8.4-12.7,8.4-20.4    c0-7.7-3-14.9-8.4-20.4C456.1,150,448.7,147.2,441.3,147.2z"/></g><g><path class="st13" d="M483.1,134.2c-42.5-42.5-111.5-42.5-154,0s-42.5,111.5,0,154s111.5,42.5,154,0    C525.6,245.7,525.6,176.8,483.1,134.2z M417.4,199.9c-13.2-13.2-13.2-34.6,0-47.8c13.2-13.2,34.6-13.2,47.8,0    c13.2,13.2,13.2,34.6,0,47.8C452,213.1,430.6,213.1,417.4,199.9z"/><path class="st1" d="M406.1,325.1c-30.4,0-59-11.8-80.5-33.4c-44.4-44.4-44.4-116.6,0-161c21.5-21.5,50.1-33.4,80.5-33.4    c30.4,0,59,11.8,80.5,33.4c21.5,21.5,33.4,50.1,33.4,80.5s-11.8,59-33.4,80.5C465.1,313.3,436.5,325.1,406.1,325.1z M406.1,107.3    c-27.7,0-53.8,10.8-73.5,30.4c-40.5,40.5-40.5,106.4,0,146.9c19.6,19.6,45.7,30.4,73.5,30.4s53.8-10.8,73.5-30.4    S510,239,510,211.2s-10.8-53.8-30.4-73.5l0,0C459.9,118.1,433.8,107.3,406.1,107.3z M441.3,214.8c-10.4,0-20.1-4-27.5-11.4l0,0    l0,0c-7.3-7.3-11.4-17.1-11.4-27.5c0-10.4,4-20.1,11.4-27.5c7.3-7.3,17.1-11.4,27.5-11.4c10.4,0,20.1,4,27.5,11.4    c7.3,7.3,11.4,17.1,11.4,27.5c0,10.4-4,20.1-11.4,27.5C461.4,210.8,451.7,214.8,441.3,214.8z M441.3,147.2    c-7.4,0-14.8,2.8-20.4,8.4c-5.4,5.4-8.4,12.7-8.4,20.4c0,7.7,3,14.9,8.4,20.4l0,0c5.4,5.4,12.7,8.4,20.4,8.4    c7.7,0,14.9-3,20.4-8.4s8.4-12.7,8.4-20.4c0-7.7-3-14.9-8.4-20.4C456.1,150,448.7,147.2,441.3,147.2z"/></g><g><path class="st13" d="M299.4,289.4c-2.7-2.7-7.1-2.7-9.8,0l-175,175l-0.3,20l185.1-185.1C302.1,296.5,302.1,292.1,299.4,289.4z"/><path class="st1" d="M111.7,490.5l0.4-27.2l0.7-0.7l175-175c1.8-1.8,4.2-2.8,6.7-2.8c2.5,0,4.9,1,6.7,2.8l0,0    c3.7,3.7,3.7,9.7,0,13.4L111.7,490.5z M117,465.4l-0.2,12.8l180.8-180.8c1.7-1.7,1.7-4.6,0-6.3c-1.7-1.7-4.6-1.7-6.3,0L117,465.4z    "/></g><g><path class="st13" d="M156,502.7l36.1-36.1l-0.9-1.3c-1.8-2.6-1.6-6,0.5-8.1L208,441c2.1-2.1,5.5-2.3,8.1-0.5l1.3,0.9l21-21    l-1.1-1.9c-1.5-2.6-1.1-5.7,0.8-7.6l27-27c1.9-1.9,5-2.3,7.6-0.8l1.9,1.1l21-21l-0.9-1.3c-1.8-2.6-1.6-6,0.5-8.1l16.2-16.2    c2.1-2.1,5.5-2.3,8.1-0.5l1.3,0.9l7.9-7.9c3.1-3.1,3.1-8.1,0-11.2c-3.1-3.1-8.1-3.1-11.2,0L133.3,503.1L156,502.7z"/><path class="st1" d="M127.1,505.7L315.8,317c2-2,4.6-3.1,7.4-3.1s5.4,1.1,7.4,3.1c4.1,4.1,4.1,10.7,0,14.7l-9.4,9.4l-3-2    c-1.6-1.1-3.7-1-4.9,0.2L297,355.5c-1.2,1.2-1.3,3.3-0.2,4.9l2,3L275,387.2l-3.5-2c-1.6-0.9-3.5-0.7-4.6,0.4l-27,27    c-1.2,1.2-1.3,3-0.4,4.6l2,3.5l-23.8,23.8l-3-2c-1.6-1.1-3.7-1-4.9,0.2l-16.2,16.2c-1.2,1.2-1.3,3.3-0.2,4.9l2,3l-38.3,38.3    L127.1,505.7z M156,502.7L156,502.7L156,502.7z M323.2,319c-1.4,0-2.8,0.6-3.8,1.6L139.4,500.5l15.6-0.2l34-34    c-2.1-3.6-1.7-8,1.1-10.9l16.2-16.2c2.8-2.8,7.3-3.2,10.9-1.1l18.2-18.2l-0.1-0.2c-2-3.5-1.5-7.9,1.2-10.6l27-27    c2.7-2.7,7.1-3.2,10.6-1.2l0.2,0.1l18.2-18.2c-2.1-3.6-1.7-8,1.1-10.9l16.2-16.2c2.8-2.8,7.3-3.2,10.9-1.1l6.5-6.5    c2.1-2.1,2.1-5.6,0-7.7C326,319.5,324.6,319,323.2,319z"/></g><g><path class="st1" d="M500.1,131c-0.7,0-1.4-0.3-1.9-0.8C474,103,446.7,94.5,446.4,94.4c-1.3-0.4-2.1-1.8-1.7-3.1    c0.4-1.3,1.8-2.1,3.1-1.7c1.2,0.4,29,9,54.1,37.2c0.9,1,0.8,2.6-0.2,3.5C501.3,130.8,500.7,131,500.1,131z"/></g><g><path class="st1" d="M490.1,307c-0.7,0-1.4-0.3-1.9-0.8c-0.9-1-0.8-2.6,0.2-3.5c21.2-18.7,35.4-45.9,39-74.8    c4-31.9-3.1-62.6-19.3-84.2c-0.8-1.1-0.6-2.7,0.5-3.5c1.1-0.8,2.7-0.6,3.5,0.5c17,22.6,24.4,54.7,20.3,87.8    c-3.7,30-18.5,58.4-40.7,77.9C491.3,306.8,490.7,307,490.1,307z"/></g><g><path class="st1" d="M405,338.8c-11.7,0-24.8-1.4-39.1-4.9c-1.3-0.3-2.2-1.7-1.8-3c0.3-1.3,1.7-2.2,3-1.8    c36,8.8,63.8,3.7,80.8-2.2c18.5-6.3,28.5-14.9,28.6-15c1-0.9,2.6-0.8,3.5,0.3s0.8,2.6-0.3,3.5c-0.4,0.4-10.8,9.1-30,15.8    C438.8,335.3,423.7,338.8,405,338.8z"/></g><g><path class="st1" d="M459.9,218.8c-0.9,0-1.8-0.5-2.2-1.4c-0.6-1.2-0.1-2.7,1.1-3.3c12.7-6.2,20.5-15.5,23.2-27.5    c2-9,0.3-16.1,0.2-16.2c-0.3-1.3,0.5-2.7,1.8-3c1.3-0.3,2.7,0.5,3,1.8c0.1,0.3,7.8,32.9-26.1,49.4    C460.6,218.8,460.2,218.8,459.9,218.8z"/></g><g><path class="st1" d="M414.2,309.4c-1.8,0-2.8-0.1-3-0.1c-1.4-0.1-2.4-1.4-2.2-2.8s1.4-2.4,2.8-2.2c0.3,0,29,2.6,59.2-26.3    c27.5-26.4,26.7-57.5,26.7-57.8c0-1.4,1-2.5,2.4-2.6c1.4,0,2.5,1,2.6,2.4c0.1,1.4,1,33.5-28.2,61.6    C447.9,307,422.8,309.4,414.2,309.4z"/></g><g><path class="st1" d="M392.1,307.5c-0.1,0-0.2,0-0.2,0c-1.6-0.1-40.4-4-65.9-39.9c-0.8-1.1-0.5-2.7,0.6-3.5    c1.1-0.8,2.7-0.5,3.5,0.6c24.2,33.9,61.9,37.8,62.3,37.8c1.4,0.1,2.4,1.3,2.3,2.7C394.5,306.5,393.4,307.5,392.1,307.5z"/></g><g><path class="st1" d="M217.2,407.6c-0.6,0-1.3-0.2-1.8-0.7c-1-1-1-2.6,0-3.5l92.2-92.2c1-1,2.6-1,3.5,0c1,1,1,2.6,0,3.5L219,406.9    C218.5,407.4,217.9,407.6,217.2,407.6z"/></g><g><path class="st1" d="M166.5,459.4c-0.6,0-1.3-0.2-1.8-0.7c-1-1-1-2.6,0-3.5l40.8-40.8c1-1,2.6-1,3.5,0c1,1,1,2.6,0,3.5l-40.8,40.8    C167.8,459.1,167.1,459.4,166.5,459.4z"/></g><g><path class="st1" d="M182.8,384.6c-0.6,0-1.3-0.2-1.8-0.7c-1-1-1-2.6,0-3.5l97.2-97.2c1-1,2.6-1,3.5,0c1,1,1,2.6,0,3.5l-97.2,97.2    C184.1,384.3,183.5,384.6,182.8,384.6z"/></g></g></svg>